# xmcd CD database file
#
# Track frame offsets:
#	151
#	20460
#	38839
#	57358
#	73903
#	85734
#	98118
#	121976
#	147665
#	163619
#	186803
#	201873
#	215983
#	226784
#	246050
#	259132
#
# Disc length: 3584 seconds
#
# Revision: 0
# Processed by: cddbd v1.5PL3 Copyright (c) Steve Scherf et al.
# Submitted via: CDex 1.51
#
DISCID=ea0dfe10
DTITLE=Janet Seidel - Midnight Jazz Lounge
DYEAR=2004
DGENRE=Jazz
TTITLE0=Spanish Harlem
TTITLE1=Agua de Beber
TTITLE2=You Belong To Me
TTITLE3=Always Something There To Remind Me
TTITLE4=Perhaps
TTITLE5=Why Don't You Do Right?
TTITLE6=Fever
TTITLE7=The Very Thought Of You
TTITLE8=Secret Love
TTITLE9=Blues In The Night
TTITLE10=Tea For Two - Do Do Do
TTITLE11=It Had Better Be Tonight
TTITLE12=Things Are Swingin'
TTITLE13=Moon River
TTITLE14=Sentimental Journey
TTITLE15=Que Sera Sera
EXTD=YEAR: 2004
EXTT0=
EXTT1=
EXTT2=
EXTT3=
EXTT4=
EXTT5=
EXTT6=
EXTT7=
EXTT8=
EXTT9=
EXTT10=
EXTT11=
EXTT12=
EXTT13=
EXTT14=
EXTT15=
PLAYORDER=
